<?xml version="1.0" encoding="utf-8"?>
<!-- Generator: Adobe Illustrator 18.0.0, SVG Export Plug-In . SVG Version: 6.00 Build 0)  -->
<!DOCTYPE svg PUBLIC "-//W3C//DTD SVG 1.1//EN" "http://www.w3.org/Graphics/SVG/1.1/DTD/svg11.dtd">
<svg version="1.1" id="Layer_1" xmlns="http://www.w3.org/2000/svg" xmlns:xlink="http://www.w3.org/1999/xlink" x="0px" y="0px"
	 viewBox="0 0 612 792" enable-background="new 0 0 612 792" xml:space="preserve">
<g>
	<g>
		<path fill="#825522" d="M272.6,353.2l-76.2,209.1l133.9,141.5c155.6-8.5,279.5-137.6,279.5-295.3c0-7.3-0.2-14.6-0.8-21.7
			L426.2,192L272.6,353.2z"/>
	</g>
	<g>
		<polyline fill="#825522" points="298.3,90.8 490,326.9 299.3,296.9 		"/>
	</g>
	<g>
		<polyline fill="#825522" points="158.9,96.3 343.9,326.9 153.2,296.9 		"/>
	</g>
	<g>
		<path fill="#9B6B33" d="M233.9,537.5c-4.3-13.2-10.3-26.5,3.2-38.3c1.8-1,3.4-1,4.9,0.2c11.1,8.5,6.9,20.3,6.9,31.2
			C244.4,534,240.5,538.3,233.9,537.5z"/>
		<path fill="#AE7343" d="M298.3,90.8c-27.8,2.2-37.1,22.1-22.9,49.9l0,0c0,1,0.2,2.2,0.6,3c1.2,0.2,2.4,0.6,3.6,0.8
			c7.5,4.7,15,11.6,22.7,0.4c0.6-0.4,1.4-1,2-1.4c0.6,0.4,1.2,0.8,1.8,1.2C319,122.6,317.1,107.6,298.3,90.8z"/>
		<path fill="#EDA559" d="M410,189.9c-15.8,2.8-32.6,6.7-44.4,18.6l0,0c-17.8,9.9-17.2,29-29,41.1c-0.2,0.2-0.4,0.6-0.6,0.8l0,0
			l0.6-0.8c-4.1-4.7-8.1-9.3-12.2-14c-3.6-1.4-8.7-3-10.7-4.3l0,0c-2-2.4-2.8-4.9-4.3-7.3c3.9-11.8,5.9-23.7-3.2-34.4
			c0-4.9-0.2-10.1-0.2-15c-0.2-9.9-0.2-19.7-0.4-29.4c0.2-0.8,0.2-1.6,0-2.4c-2.2-0.4-3.9,0.2-5.5,1.6c-0.6,0.8-1,1.4-1.4,2.2
			c-5.3,1.4-10.7,0.2-16-0.8c-0.6-0.8-1.4-1.4-2.4-2c-1.6-0.6-3.2-0.4-4.7,0.6c-3.9,19.3-4.3,40.5-27,49.7
			c-9.3,6.9-20.1,1.6-30.2,3.8c0,20.1-1.6,356.7-1.6,374.9c16.4-1.4,29.4-12,35.5-25.9l0,0c13.8-18.8,16.8-39.3,13.4-62.2
			c-3.6-24.9-11.6-52.3,17.8-70.3c10.5-6.3,10.5-19.1,10.3-30.8s-2.6-24.1,7.9-33.4l0,0c15.4-7.1,22.9-21.3,29.8-35.3
			c6.3-12.8,15-19.3,29.6-18.6c10.9,0.6,22.7-0.6,29.8-9.1c18.8-21.5,34-45.6,40.5-73.6C436.1,196.2,427,186.9,410,189.9z
			 M289.4,195c1.4-0.2,2.6-0.6,3.8-1.2c0,10.3-3,20.5-1,30.8c3,5.5,7.3,9.1,13.8,9.9c0.6,9.7,7.7,14,15.4,17.8
			c-12.2,7.7-25.3,13.8-36.5,23.1c3.2-15.8-2.8-33,7.1-47.8c0.2-1.8,0-3.6-0.6-5.1c-5.1-9.9-14.4-15-22.7-21.3
			C276.2,201.3,281.9,194.8,289.4,195z M229.2,360.9c3.9-0.8,8.3-2.4,12.4,1.4c-4.3,3.2-8.5,1.6-12.4,0.8
			C229.4,362.2,229.4,361.5,229.2,360.9z M243.8,529.5c-3.2,0.2-5.7,2.2-8.1,4.5c3.8-10.5-0.2-22.1,3.6-32.6
			c-0.2-18.8-0.2-21.3,11.3-20.7c-1.2,7.9-9.7,12.2-10.9,20.1C241.2,510.3,242.4,520,243.8,529.5z M250.5,437.7
			c-0.8,5.7-1,11.5-0.4,17.2c-8.3-0.8-16-4.3-24.3-4.1c-0.2-0.4-0.6-0.8-0.8-1.2c1-1.4,1.8-3,2.2-4.7c0-0.4,0.2-0.8,0.2-1.2
			c8.1-0.4,15.4-5.1,23.3-6.9C250.5,436.9,250.5,437.3,250.5,437.7z M231.6,227.8c7.7,0.6,9.5-6.7,13.2-11.5c2.2-0.2,3.6,1.4,4.7,3
			c3.9,5.5,8.1,10.9,14.4,12C248.9,251.3,242.2,250.3,231.6,227.8z M263.9,289c-3.9-5.9-16.4-10.7-8.3-18c9.3-8.3,9.5,6.3,15,10.1
			C267.5,283.1,264.9,285.6,263.9,289z M269.3,377.4c-1.2-8.7,8.9-8.5,13.6-12.8c0.6-0.4,1-1,1.6-1.4c-4.9,7.5-5.7,15-1,22.5
			c-0.2,0.6-0.2,1-0.4,1.6C277.4,385.1,270.1,384.2,269.3,377.4z M297.5,327.9c-0.2,0.2-0.4,0.6-0.4,0.8c-6.3-2-10.3-7.3-14.8-11.6
			c-3.2-3.2-6.7-6.7-4.5-11.5c1.8-3.9,6.7-2.4,10.3-2.6c10.9,0,21.5,0.2,32.4,0.4C314.1,313.1,306.4,321.2,297.5,327.9z
			 M332.7,291.6c-0.2,0.2-0.4,0.6-0.6,0.8c-5.3-3.4-11.1-4.3-17.2-2.8c7.5-10.9,9.5-9.9,19.5,0.4
			C333.8,290.6,333.2,291.2,332.7,291.6z M415.2,217.9c-9.3,17.8-18.8,35.3-30.6,51.7c-4.9,6.7-10.1,12.6-19.1,13
			c-8.1-39.5-3.8-47.8,26.8-65.7c8.7-5.1,16.4-6.7,23.5-1.2C415.6,216.3,415.4,217.1,415.2,217.9z"/>
		<path fill="#AF7343" d="M401.2,206.5c-11.6,3.9-20.5,12-30,19.3c-21.3,16.4-22.9,42.2-4.5,62.2c9.5,1,15.4-4.3,20.1-11.3
			c12-18.4,24.5-36.5,33.2-56.7C420.9,205.3,413.8,202.3,401.2,206.5z"/>
		<path fill="#D99047" d="M336,295.5c-9.1,0-18.2,1.2-26.5-3.8c0.6-3.6,0.4-7.7,2.4-10.7c2.8-4.5,4.7-11.1,11.3-11.1
			c7.7,0,9.5,7.1,11.6,12.8c1.2,2.8,1,6.1,1.4,9.1C336.2,293.1,336.2,294.3,336,295.5z"/>
		<path fill="#D99049" d="M256.4,454.6c-13.2,15.8-23.1,2.2-34-3.8c0-1.2-0.2-2.4-0.4-3.8c0-1.2,0.2-2.6,0.2-3.8
			c10.7-5.3,19.3-19.7,34-7.5C256.4,442,256.4,448.3,256.4,454.6z"/>
		<path fill="#D89049" d="M242,499.4c-1.6,0-3.4,0-4.9-0.2c-2-4.5-7.3-7.7-6.3-13.2c1-6.3,3.4-12.6,9.9-15c9.1-3.4,10.9,6.3,16,10.1
			C259.6,493.5,250.1,495.9,242,499.4z"/>
		<path fill="#D8904D" d="M324.6,250.3c-7.5,18.8-24.1,22.9-41.5,26.3c-4.5-18.8-11.3-37.7,7.7-52.9c1.2-1.4,2.6-1.4,3.8,0
			c3.8,2.6,7.5,5.1,11.3,7.7C309.9,239.8,319.2,243,324.6,250.3z"/>
		<path fill="#D98F46" d="M222.7,360.1c3.2-2.2,5.9-4.7,9.3-6.5c4.7-2.4,10.5-7.9,15-1.6c4.1,5.7,4.1,14,0,19.5
			c-4.5,6.3-10.3,0.8-15-1.6c-3.4-1.6-6.1-4.3-9.3-6.5C222.5,362.4,222.7,361.3,222.7,360.1z"/>
		<path fill="#D88F4A" d="M230,402.1c0.8-7.9-1.8-18,10.7-18.6c10.9-0.6,28.6,14,26.8,22.5c-2.8,13.6-15.4,17-26.1,17.4
			C226.8,423.8,231.2,410.8,230,402.1z"/>
		<path fill="#D88F48" d="M226,313.5c0.8-9.1-2.4-21.3,12-20.9c11.8,0.4,23.9,7.5,24.5,19.1c0.8,14.4-14.6,18.6-25.3,20.1
			C223.9,334,227.2,321.2,226,313.5z"/>
		<path fill="#D68F4C" d="M252.7,216.2c4.3,7.5,12.4,10.1,19,15c-1.2,2.2-2,4.5-3.4,6.7c-6.9,10.7-17.8,17.4-29.6,15
			c-13.8-2.6-7.1-16.2-8.7-25.1c3.9-5.9,7.7-11.8,15.4-13.4C248.4,213.2,250.7,214,252.7,216.2z"/>
		<path fill="#D88F48" d="M271.8,280.5c0.8,6.7-3.6,10.9-7.7,15c-3-2.2-6.5-3.9-8.5-6.9c-4.3-5.9-16-9.3-11.1-18.8
			c3.6-6.9,12.8-11.8,20.5-10.1C275.4,262.3,270.5,273.2,271.8,280.5z"/>
		<path fill="#DB9450" d="M286.9,360.1c0,10.1,0,20.1,0,30.2c-11.8,6.5-18.8-2-25.9-9.1c-5.5-5.5-3.2-10.3,3-13.4
			C271.3,364,278.2,359.3,286.9,360.1z"/>
		<path fill="#D98F46" d="M281.5,345.3c0.4,7.7-3.6,11.5-8.9,9.9c-6.3-1.8-17,0.2-16.8-10.3c0-6.9,5.1-13.6,12.6-14
			C278.6,330.3,277,341.3,281.5,345.3z"/>
		<path fill="#D8904C" d="M298.3,189.5c-3.8,0-7.5,0-11.3,0c-8.1,1-15,3.9-19.3,11.3c0,15.4,15.4,15,22.9,22.7l0,0l0,0l0,0
			c1.2,0,2.6,0,3.8,0C296.5,212.4,301.7,201.3,298.3,189.5z"/>
		<path fill="#735532" d="M323.8,303.8c-3.4,13.6-10.3,23.7-25.5,25.5c-16,0.2-18.8-7.1-23.9-16.4c-2.8-4.9-1.6-11.6,4.5-11.8
			C288.6,299.3,310.9,297.9,323.8,303.8z"/>
		<path fill="#A07640" d="M241.8,499.6c7.9,7.1,8.5,16.4,6.9,25.9c-1,5.1-3.6,10.3-9.5,10.1c-5.5-0.2-8.3-5.3-8.9-10.7
			c-0.8-9.3-2.6-19,7.1-25.5C239.1,498.1,240.5,498.1,241.8,499.6z"/>
		<path fill="#9B6B33" d="M203.5,537.5c4.3-13.2,10.3-26.5-3.2-38.3c-1.8-1-3.4-1-4.9,0.2c-11.1,8.5-6.9,20.3-6.9,31.2
			C193.1,534,197,538.3,203.5,537.5z"/>
		<path fill="#BC935D" d="M139.2,90.8c27.8,2.2,37.1,22.1,22.9,49.9l0,0c0,1-0.2,2.2-0.6,3c-1.2,0.2-2.4,0.6-3.6,0.8
			c-7.5,4.7-15,11.6-22.7,0.4c-0.6-0.4-1.4-1-2-1.4c-0.6,0.4-1.2,0.8-1.8,1.2C118.5,122.6,120.4,107.6,139.2,90.8z"/>
		<path fill="#F2BB73" d="M5.3,213c6.5,28,21.7,52.1,40.5,73.6c7.3,8.3,19,9.7,29.8,9.1c14.6-0.8,23.3,5.7,29.6,18.6
			c6.9,14,14.4,28.2,29.8,35.3l0,0c10.5,9.3,8.1,21.7,7.9,33.4c-0.2,11.6,0,24.5,10.3,30.8c29.4,18,21.3,45.2,17.8,70.3
			c-3.2,23.1-0.4,43.4,13.4,62.2l0,0c6.1,13.6,17.4,24.5,34,25.9c0-15.6,0.2-360.7,0.2-374.9c-9.9-2-20.7,3.2-30.2-3.8
			c-22.5-9.3-22.9-30.4-27-49.7c-1.6-1-3-1.2-4.7-0.6c-1,0.6-1.6,1.2-2.4,2c-5.3,1-10.7,2.2-16,0.8c-0.4-0.8-0.8-1.4-1.4-2.2
			c-1.6-1.4-3.4-2-5.5-1.6c-0.2,0.8-0.2,1.6,0,2.4c-0.2,9.9-0.2,19.7-0.4,29.4c0,4.9,0,10.1,0,15c-9.1,10.7-6.7,22.5-2.8,34.4
			c-1.4,2.4-2,4.9-3.6,7.3l0,0c-3.4,1.4-7.7,3-11.3,4.3c-4.1,4.7-8.5,9.3-12.6,14l0.6,0.8c0,0,0,0-0.2,0c-0.2-0.2-0.8-0.6-1-0.8
			c-11.8-12.2-11.6-33.2-29.4-41.3l0,0c-11.8-13.2-28.2-15.6-44-18.4C10.1,186.9,1.4,196,5.3,213z M169,200.9
			c-8.3,6.3-17.6,11.6-22.7,21.3c-0.8,1.6-1,3.4-0.6,5.1c9.9,14.8,3.9,32,7.1,47.8c-11.3-9.3-24.3-15.4-36.5-23.1
			c7.9-3.6,14.8-7.9,15.4-17.8c6.3-0.8,10.9-4.3,13.8-9.9c2-10.3-1-20.5-1-30.8c1.2,0.6,2.4,1,3.8,1.2
			C155.6,194.8,161.3,201.3,169,200.9z M208.3,363c-3.9,0.8-7.9,2.4-12.4-0.8c3.9-3.8,8.3-2.2,12.4-1.4
			C208.3,361.5,208.1,362.2,208.3,363z M198,500.8c-1.2-7.9-9.7-12.2-10.9-20.1c11.5-0.6,11.5,1.8,11.3,20.7
			c3.6,10.5-0.2,22.1,3.6,32.6c-2.4-2.4-4.9-4.3-8.1-4.5C195.1,520,196.2,510.3,198,500.8z M186.8,436.7c7.9,1.8,15.2,6.5,23.3,6.9
			c0,0.4,0.2,0.8,0.2,1.2c0.6,1.8,1.4,3.2,2.2,4.7c-0.4,0.4-0.6,0.8-0.8,1.2c-8.3-0.2-16.2,3.6-24.3,4.1c0.6-5.7,0.4-11.5-0.4-17.2
			C187,437.3,187,436.9,186.8,436.7z M173.3,231.4c6.3-1.2,10.5-6.5,14.4-12c1.2-1.6,2.6-3.2,4.7-3c3.8,4.5,5.5,11.8,13.2,11.5
			C195.2,250.3,188.5,251.3,173.3,231.4z M166.6,281.1c5.5-3.8,5.7-18.4,15-10.1c8.1,7.1-4.3,12-8.3,18
			C172.5,285.6,170,283.1,166.6,281.1z M154.6,387.5c-0.2-0.6-0.4-1-0.4-1.6c4.7-7.5,3.9-15-1-22.5c0.6,0.4,1,1,1.6,1.4
			c4.7,4.1,14.8,3.9,13.6,12.8C167.4,384.2,160.1,385.1,154.6,387.5z M117.3,303.6c10.9-0.2,21.5-0.4,32.4-0.4
			c3.6,0,8.3-1.6,10.3,2.6c2.2,4.5-1.4,8.3-4.5,11.5c-4.5,4.3-8.5,9.7-14.8,11.6c-0.2-0.2-0.2-0.6-0.4-0.8
			C131.1,321.2,123.4,313.1,117.3,303.6z M103.1,290.2c10.1-10.3,12-11.3,19.5-0.4c-6.1-1.6-11.8-0.6-17.2,2.8
			c-0.2-0.2-0.4-0.6-0.6-0.8C104.2,291.2,103.6,290.6,103.1,290.2z M21.9,215.8c7.1-5.5,14.6-3.8,23.5,1.2
			c30.6,17.8,34.9,26.3,26.8,65.7c-9.1-0.2-14.2-6.1-19.1-13c-11.8-16.2-21.3-34-30.6-51.7C22.1,217.1,21.9,216.3,21.9,215.8z"/>
		<path fill="#BC935D" d="M36.3,206.5c11.6,3.9,20.5,12,30,19.3c21.3,16.4,22.9,42.2,4.5,62.2c-9.5,1-15.4-4.3-20.1-11.3
			c-12-18.4-24.5-36.5-33.2-56.7C16.6,205.3,23.9,202.3,36.3,206.5z"/>
		<path fill="#E1AD69" d="M101.5,295.5c9.1,0,18.2,1.2,26.5-3.8c-0.6-3.6-0.4-7.7-2.4-10.7c-2.8-4.5-4.7-11.1-11.3-11.1
			c-7.7,0-9.5,7.1-11.6,12.8c-1.2,2.8-1,6.1-1.4,9.1C101.3,293.1,101.5,294.3,101.5,295.5z"/>
		<path fill="#E1AD69" d="M181,454.6c13.2,15.8,23.1,2.2,34-3.8c0-1.2,0.2-2.4,0.4-3.8c0-1.2-0.2-2.6-0.2-3.8
			c-10.7-5.3-19.3-19.7-34-7.5C181,442,181,448.3,181,454.6z"/>
		<path fill="#E1AD69" d="M195.4,499.4c1.6,0,3.4,0,4.9-0.2c2-4.5,7.3-7.7,6.3-13.2c-1-6.3-3.4-12.6-9.9-15
			c-9.1-3.4-10.9,6.3-16,10.1C177.9,493.5,187.4,495.9,195.4,499.4z"/>
		<path fill="#E1AD69" d="M112.9,250.3c7.5,18.8,24.1,22.9,41.5,26.3c4.5-18.8,11.3-37.7-7.7-52.9c-1.2-1.4-2.6-1.4-3.8,0
			c-3.8,2.6-7.5,5.1-11.3,7.7C127.5,239.8,118.3,243,112.9,250.3z"/>
		<path fill="#E1AD69" d="M214.8,360.1c-3.2-2.2-5.9-4.7-9.3-6.5c-4.7-2.4-10.5-7.9-15-1.6c-4.1,5.7-4.1,14,0,19.5
			c4.5,6.3,10.3,0.8,15-1.6c3.4-1.6,6.1-4.3,9.3-6.5C215,362.4,215,361.3,214.8,360.1z"/>
		<path fill="#E1AD69" d="M207.5,402.1c-0.8-7.9,1.8-18-10.7-18.6c-10.9-0.6-28.6,14-26.8,22.5c2.8,13.6,15.4,17,26.1,17.4
			C210.6,423.8,206.5,410.8,207.5,402.1z"/>
		<path fill="#E1AD69" d="M211.4,313.5c-0.8-9.1,2.4-21.3-12-20.9c-11.8,0.4-23.9,7.5-24.5,19.1c-0.8,14.4,14.6,18.6,25.3,20.1
			C213.6,334,210.3,321.2,211.4,313.5z"/>
		<path fill="#E1AD69" d="M184.8,216.2c-4.3,7.5-12.4,10.1-19,15c1.2,2.2,2,4.5,3.4,6.7c6.9,10.7,17.8,17.4,29.6,15
			c13.8-2.6,7.1-16.2,8.7-25.1c-3.9-5.9-7.7-11.8-15.4-13.4C189.1,213.2,186.8,214,184.8,216.2z"/>
		<path fill="#E1AD69" d="M165.6,280.5c-0.8,6.7,3.6,10.9,7.7,15c3-2.2,6.5-3.9,8.5-6.9c4.3-5.9,16-9.3,11.1-18.8
			c-3.6-6.9-12.8-11.8-20.5-10.1C162.1,262.3,167,273.2,165.6,280.5z"/>
		<path fill="#E1AD69" d="M150.6,360.1c0,10.1,0,20.1,0,30.2c11.8,6.5,18.8-2,25.9-9.1c5.5-5.5,3.2-10.3-3-13.4
			C166.4,364,159.3,359.3,150.6,360.1z"/>
		<path fill="#E1AD69" d="M156,345.3c-0.4,7.7,3.6,11.5,8.9,9.9c6.3-1.8,17,0.2,16.8-10.3c0-6.9-5.1-13.6-12.6-14
			C158.9,330.3,160.5,341.3,156,345.3z"/>
		<path fill="#E1AD69" d="M139.2,189.5c3.8,0,7.5,0,11.3,0c8.1,1,15,3.9,19.3,11.3c0,15.4-15.4,15-22.9,22.7l0,0l0,0l0,0
			c-1.2,0-2.6,0-3.8,0C141,212.4,135.8,201.3,139.2,189.5z"/>
		<path fill="#735532" d="M113.7,303.8c3.4,13.6,10.3,23.7,25.5,25.5c16,0.2,18.8-7.1,23.9-16.4c2.8-4.9,1.6-11.6-4.5-11.8
			C148.9,299.3,126.5,297.9,113.7,303.8z"/>
		<path fill="#BC935D" d="M195.6,499.6c-7.9,7.1-8.5,16.4-6.9,25.9c1,5.1,3.6,10.3,9.5,10.1c5.5-0.2,8.3-5.3,8.9-10.7
			c0.8-9.3,2.6-19-7.1-25.5C198.4,498.1,197,498.1,195.6,499.6z"/>
	</g>
</g>
</svg>
